{"title":"Sons of Ram (2012) Hindi 1CD DVDRip XviD ESubs","uid":8075217,"size":657040954,"categoryP":"video","categoryS":"movies","magnet":"?xt=urn:btih:099e55d9d0eb59fe0813b41c86bd4a2abe312830&amp;dn=Sons+of+Ram+%282012%29+Hindi+1CD+DVDRip+XviD+ESubs&amp;tr=udp%3A%2F%2Ftracker.openbittorrent.com%3A80&amp;tr=udp%3A%2F%2Fopen.demonii.com%3A1337&amp;tr=udp%3A%2F%2Ftracker.coppersurfer.tk%3A6969&amp;tr=udp%3A%2F%2Fexodus.desync.com%3A6969","seeders":1,"leechers":0,"uploader":"HDvideos","files":5,"time":1359370077,"description":"mastitorrents.com\n  &lt;a href=&quot;\nhttp://mastitorrents.com/forums/index.php&quot; rel=&quot;nofollow&quot; target=&quot;_NEW&quot;&gt;\nhttp://mastitorrents.com/forums/index.php&lt;/a&gt;\n  &lt;a href=&quot;\nhttp://thepiratebay.se/user/HDvideos/0/7&quot; rel=&quot;nofollow&quot; target=&quot;_NEW&quot;&gt;\nhttp://thepiratebay.se/user/HDvideos/0/7&lt;/a&gt;\n\nSons of Ram (2012) Hindi 1CD DVDRip XviD ESubs\n\nFormat                                   : AVI\nFormat/Info                              : Audio Video Interleave\nFile size                                : 612 MiB\nDuration                                 : 1h 25mn\nOverall bit rate                         : 999 Kbps\n\nCodec ID                                 : XVID\nCodec ID/Hint                            : XviD\nDuration                                 : 1h 25mn\nBit rate                                 : 862 Kbps\nWidth                                    : 688 pixels\nHeight                                   : 352 pixels\nDisplay aspect ratio                     : 1.955\nFrame rate                               : 29.970 fps\nColor space                              : YUV\nChroma subsampling                       : 4:2:0\nBit depth                                : 8 bits\nScan type                                : Progressive\nCompression mode                         : Lossy\nBits/(Pixel*Frame)                       : 0.119\nStream size                              : 528 MiB (86%)\nWriting library                          : XviD 1.2.1 (UTC 2008-12-04)\n\nFormat                                   : AC-3\nFormat/Info                              : Audio Coding 3\nMode extension                           : CM (complete main)\nFormat settings, Endianness              : Big\nCodec ID                                 : 2000\nDuration                                 : 1h 25mn\nBit rate mode                            : Constant\nBit rate                                 : 128 Kbps\nChannel(s)                               : 2 channels\nChannel positions                        : Front: L R\nSampling rate                            : 48.0 KHz\nBit depth                                : 16 bits\nCompression mode                         : Lossy\nStream size                              : 78.4 MiB (13%)\nAlignment                                : Aligned on interleaves\nInterleave, duration                     : 64 ms (1.92 video frames)\nInterleave, preload duration             : 192 ms\n\nScreens: &lt;a href=&quot;\nhttp://img801.imageshack.us/img801/6746/coversbn.jpg&quot; rel=&quot;nofollow&quot; target=&quot;_NEW&quot;&gt;\nhttp://img801.imageshack.us/img801/6746/coversbn.jpg&lt;/a&gt; &lt;a href=&quot;\nhttp://img5.imageshack.us/img5/9344/49311343.png&quot; rel=&quot;nofollow&quot; target=&quot;_NEW&quot;&gt;\nhttp://img5.imageshack.us/img5/9344/49311343.png&lt;/a&gt; &lt;a href=&quot;\nhttp://img24.imageshack.us/img24/3687/82178903.png&quot; rel=&quot;nofollow&quot; target=&quot;_NEW&quot;&gt;\nhttp://img24.imageshack.us/img24/3687/82178903.png&lt;/a&gt; &lt;a href=&quot;\nhttp://img254.imageshack.us/img254/9940/80514476.png&quot; rel=&quot;nofollow&quot; target=&quot;_NEW&quot;&gt;\nhttp://img254.imageshack.us/img254/9940/80514476.png&lt;/a&gt; &lt;a href=&quot;\nhttp://img822.imageshack.us/img822/9531/43711607.png&quot; rel=&quot;nofollow&quot; target=&quot;_NEW&quot;&gt;\nhttp://img822.imageshack.us/img822/9531/43711607.png&lt;/a&gt; &lt;a href=&quot;\nhttp://img266.imageshack.us/img266/8440/47642348.png&quot; rel=&quot;nofollow&quot; target=&quot;_NEW&quot;&gt;\nhttp://img266.imageshack.us/img266/8440/47642348.png&lt;/a&gt; &lt;a href=&quot;\nhttp://img200.imageshack.us/img200/8872/67167037.png&quot; rel=&quot;nofollow&quot; target=&quot;_NEW&quot;&gt;\nhttp://img200.imageshack.us/img200/8872/67167037.png&lt;/a&gt; &lt;a href=&quot;\nhttp://img838.imageshack.us/img838/8761/88988628.png&quot; rel=&quot;nofollow&quot; target=&quot;_NEW&quot;&gt;\nhttp://img838.imageshack.us/img838/8761/88988628.png&lt;/a&gt; &lt;a href=&quot;\nhttp://img213.imageshack.us/img213/8758/67915212.png&quot; rel=&quot;nofollow&quot; target=&quot;_NEW&quot;&gt;\nhttp://img213.imageshack.us/img213/8758/67915212.png&lt;/a&gt; &lt;a href=&quot;\nhttp://img197.imageshack.us/img197/1981/82679869.png&quot; rel=&quot;nofollow&quot; target=&quot;_NEW&quot;&gt;\nhttp://img197.imageshack.us/img197/1981/82679869.png&lt;/a&gt; &lt;a href=&quot;\nhttp://img685.imageshack.us/img685/1633/44818143.png&quot; rel=&quot;nofollow&quot; target=&quot;_NEW&quot;&gt;\nhttp://img685.imageshack.us/img685/1633/44818143.png&lt;/a&gt; &lt;a href=&quot;\nhttp://img534.imageshack.us/img534/8827/81067501.png&quot; rel=&quot;nofollow&quot; target=&quot;_NEW&quot;&gt;\nhttp://img534.imageshack.us/img534/8827/81067501.png&lt;/a&gt; &lt;a href=&quot;\nhttp://img69.imageshack.us/img69/1558/16323264.png&quot; rel=&quot;nofollow&quot; target=&quot;_NEW&quot;&gt;\nhttp://img69.imageshack.us/img69/1558/16323264.png&lt;/a&gt;","torrent":{"xt":"urn:btih:099e55d9d0eb59fe0813b41c86bd4a2abe312830","amp;dn":"Sons+of+Ram+%282012%29+Hindi+1CD+DVDRip+XviD+ESubs","amp;tr":["udp%3A%2F%2Ftracker.openbittorrent.com%3A80","udp%3A%2F%2Fopen.demonii.com%3A1337","udp%3A%2F%2Ftracker.coppersurfer.tk%3A6969","udp%3A%2F%2Fexodus.desync.com%3A6969"],"infoHash":"099e55d9d0eb59fe0813b41c86bd4a2abe312830","infoHashBuffer":{"type":"Buffer","data":[9,158,85,217,208,235,89,254,8,19,180,28,134,189,74,42,190,49,40,48]},"announce":[],"urlList":[]}}